<?xml version="1.0" encoding="UTF-8" standalone="no"?>
<svg
   xmlns:dc="http://purl.org/dc/elements/1.1/"
   xmlns:cc="http://creativecommons.org/ns#"
   xmlns:rdf="http://www.w3.org/1999/02/22-rdf-syntax-ns#"
   xmlns:svg="http://www.w3.org/2000/svg"
   xmlns="http://www.w3.org/2000/svg"
   xmlns:sodipodi="http://sodipodi.sourceforge.net/DTD/sodipodi-0.dtd"
   xmlns:inkscape="http://www.inkscape.org/namespaces/inkscape"
   version="1.1"
   id="svg2"
   width="2911.321"
   height="984.60046"
   viewBox="0 0 2911.321 984.60046"
   sodipodi:docname="Naleraq_Logo.svg"
   inkscape:version="1.0.2 (e86c870879, 2021-01-15, custom)">
  <metadata
     id="metadata8">
    <rdf:RDF>
      <cc:Work
         rdf:about="">
        <dc:format>image/svg+xml</dc:format>
        <dc:type
           rdf:resource="http://purl.org/dc/dcmitype/StillImage" />
        <dc:title></dc:title>
      </cc:Work>
    </rdf:RDF>
  </metadata>
  <defs
     id="defs6" />
  <sodipodi:namedview
     pagecolor="#ffffff"
     bordercolor="#666666"
     borderopacity="1"
     objecttolerance="10"
     gridtolerance="10"
     guidetolerance="10"
     inkscape:pageopacity="0"
     inkscape:pageshadow="2"
     inkscape:window-width="1680"
     inkscape:window-height="988"
     id="namedview4"
     showgrid="false"
     fit-margin-top="10"
     fit-margin-left="10"
     fit-margin-right="10"
     fit-margin-bottom="10"
     inkscape:zoom="0.27526042"
     inkscape:cx="1720.1958"
     inkscape:cy="850.83933"
     inkscape:window-x="-8"
     inkscape:window-y="-8"
     inkscape:window-maximized="1"
     inkscape:current-layer="g10" />
  <g
     inkscape:groupmode="layer"
     inkscape:label="Image"
     id="g10"
     transform="translate(-700.81897,-765.93213)">
    <path
       id="path843"
       style="fill:#58585b;fill-opacity:1"
       d="m 3564.8972,1399.9107 -0.2572,-65.6219 -3.9081,5.6747 c -7.664,11.1282 -21.2813,21.8487 -34.571,27.2166 -13.0153,5.2571 -20.5281,6.6351 -36.5209,6.6983 -12.2512,0.048 -16.6139,-0.3433 -23.807,-2.138 -40.1781,-10.0245 -68.4026,-40.585 -77.8322,-84.2741 -3.0322,-14.0485 -3.3288,-47.4836 -0.5437,-61.2876 8.8173,-43.7026 37.8585,-75.3049 79.3322,-86.3285 8.5399,-2.2698 11.9132,-2.6254 25.3507,-2.6719 19.0546,-0.066 25.8527,1.42 41.3652,9.0417 12.4236,6.104 24.6145,17.0952 30.6154,27.6023 l 2.7528,4.8201 0.605,-8.8049 c 0.3328,-4.8427 0.8963,-13.1924 1.2522,-18.5549 l 0.6472,-9.75 h 16.3811 16.3811 v 162 162 h -18.4928 -18.4928 z m -49.4735,-61.6308 c 33.3793,-10.9623 52.731,-49.0211 48.6862,-95.7511 -4.0221,-46.4684 -29.6318,-72.9962 -70.4699,-72.9962 -37.0109,0 -60.8691,21.4049 -69.6635,62.5 -2.0141,9.4118 -1.709,39.0922 0.5087,49.4843 6.6633,31.2238 25.4066,52.7925 50.8796,58.5492 10.1794,2.3004 30.3546,1.4008 40.0589,-1.7862 z M 2345.14,1373.0767 c -10.4031,-1.7176 -22.8892,-6.0488 -30.6178,-10.6208 -12.6005,-7.454 -22.7215,-20.7763 -25.8424,-34.0164 -1.957,-8.3021 -1.9733,-24.8224 -0.032,-32.2758 5.7049,-21.9028 24.0058,-38.4017 51.1561,-46.1189 4.8598,-1.3814 27.961,-6.2613 51.336,-10.8443 l 42.5,-8.3327 0.2867,-9.1036 c 0.857,-27.2153 -13.3123,-46.5661 -37.548,-51.2787 -3.916,-0.7615 -11.0327,-1.0339 -19,-0.7274 -10.3594,0.3986 -14.2311,0.9974 -20.7291,3.206 -17.6341,5.9935 -29.2744,16.821 -36.0887,33.5685 -1.2308,3.025 -2.5466,5.4572 -2.9241,5.4048 -0.3774,-0.052 -7.1747,-4.0662 -15.1051,-8.9196 -16.142,-9.8789 -15.3746,-8.5104 -10.3697,-18.4918 14.9912,-29.8976 49.5323,-48.1125 90.9518,-47.9625 37.8927,0.1372 68.3028,15.6793 80.7903,41.2905 6.756,13.8561 6.5426,11.305 7.1681,85.6786 l 0.5678,67.5 2.2588,3.6323 c 1.2424,1.9978 3.7174,4.2478 5.5,5 3.6556,1.5426 13.6371,1.7863 21.4848,0.5247 l 5.2436,-0.8429 -0.4615,2.8429 c -0.2538,1.5637 -0.742,8.077 -1.0848,14.474 -0.5971,11.141 -0.728,11.6788 -3.1064,12.7625 -4.735,2.1573 -11.8816,3.232 -21.3345,3.208 -21.395,-0.054 -35.4362,-8.1269 -42.5541,-24.4654 l -2.7948,-6.4155 -4.9813,5.4503 c -14.7326,16.1198 -38.2081,25.9445 -64.1698,26.8555 -7.5839,0.2662 -15.1281,-0.095 -20.5,-0.9823 z m 45.5,-34.0171 c 17.1243,-4.7033 31.366,-15.331 37.8426,-28.2395 4.7169,-9.4013 5.6574,-14.9462 5.6574,-33.3557 v -15.9699 l -2.25,0.5267 c -1.2375,0.2896 -16.65,3.4585 -34.25,7.042 -37.8793,7.7125 -44.6783,9.4724 -54.1463,14.0156 -8.2568,3.9621 -15.3144,11.0415 -17.1649,17.218 -1.6668,5.5633 -1.4792,15.0274 0.4078,20.5653 3.003,8.8133 12.2671,16.1642 24.1635,19.1733 7.611,1.9251 31.2955,1.3436 39.7399,-0.9758 z m 209.075,34.4132 c -22.1332,-3.7054 -34.6876,-15.8856 -40.1792,-38.9816 -1.6465,-6.9249 -1.7988,-17.8519 -2.1284,-152.7086 l -0.3549,-145.25 h 19.0305 19.0306 l 0.2632,144.75 c 0.2528,139.0374 0.3368,144.8881 2.1274,148.25 5.2466,9.8506 11.5054,12.4775 28.0085,11.7554 8.169,-0.3574 13.1877,-1.159 18.8773,-3.0149 l 7.75,-2.5281 -0.048,2.1438 c -0.026,1.1791 -1.2639,8.4438 -2.75,16.1438 l -2.702,14 -6.5,2.1678 c -11.7038,3.9032 -28.524,5.2649 -40.425,3.2724 z m 177.925,-0.014 c -58.8448,-8.1023 -94.5,-52.5964 -94.5,-117.9262 0,-37.9302 11.3034,-67.9123 33.9306,-90 13.8094,-13.4802 30.6977,-22.2987 51.0694,-26.6669 11.7061,-2.51 37.0791,-2.496 49,0.027 19.6526,4.1595 33.2007,11.5852 47.5,26.0348 11.3092,11.4281 16.6159,19.83 21.9488,34.7508 5.2151,14.5913 6.8764,26.8971 6.3733,47.2104 -0.2342,9.4566 -0.7666,17.7451 -1.183,18.4189 -0.5879,0.9513 -19.8801,1.225 -86.3362,1.225 h -85.5791 l 0.6572,6.4148 c 3.3438,32.6369 21.8107,57.1087 49.619,65.7536 6.698,2.0823 9.3714,2.3247 25,2.2669 16.1547,-0.06 18.115,-0.2685 25.5,-2.7146 4.4,-1.4574 10.7,-4.2663 14,-6.2421 7.0865,-4.2428 17.3723,-14.053 21.7336,-20.7286 1.7068,-2.6125 3.2771,-4.75 3.4896,-4.75 1.4938,0 28.2768,16.4455 28.2768,17.3628 0,2.2801 -8.8468,14.2587 -15.4346,20.8985 -13.7221,13.8303 -30.9632,22.8429 -52.0654,27.2167 -9.6006,1.9899 -33.2759,2.7873 -43,1.4484 z m 78.4924,-142.6762 c -0.014,-5.2032 -2.1117,-15.7625 -4.4951,-22.6308 -6.2775,-18.0891 -21.4566,-31.6215 -41.1068,-36.6472 -9.4021,-2.4046 -26.5701,-2.6282 -36.8905,-0.4805 -16.3541,3.4034 -32.6332,15.2978 -41.4848,30.311 -4.3966,7.4571 -9.2253,20.325 -10.4874,27.9475 l -0.7036,4.25 h 67.5879 67.5879 l -0.01,-2.75 z m 332.4796,142.7764 c -23.0736,-3.2788 -43.0393,-14.3269 -52.4809,-29.0403 -7.6696,-11.9519 -10.7454,-30.1449 -7.6056,-44.9861 4.9498,-23.3969 21.4606,-39.686 49.5762,-48.9105 3.554,-1.166 26.054,-5.9596 50,-10.6524 23.9461,-4.6927 44.3902,-8.7866 45.4313,-9.0975 1.7561,-0.5243 1.8519,-1.3709 1.3234,-11.7024 -0.9166,-17.9167 -5.0682,-28.1883 -15.0984,-37.3553 -9.6946,-8.8603 -19.9661,-12.2819 -36.8703,-12.2819 -29.5108,0 -48.6063,10.5836 -59.627,33.0481 l -4.8236,9.8323 -14.6485,-9.0245 c -8.0567,-4.9635 -14.6442,-9.5491 -14.6388,-10.1902 0.019,-2.3064 5.1397,-12.12 9.4348,-18.0826 9.1091,-12.6454 22.9591,-23.6504 37.2538,-29.6013 31.4103,-13.0761 73.6911,-11.5205 101.3016,3.7271 9.6614,5.3355 22.5832,18.7874 27.1763,28.2911 7.3541,15.2168 7.1478,12.8921 7.7673,87.5457 0.6297,75.8795 0.027,70.7843 8.836,74.681 3.8857,1.7188 5.7991,1.937 12.1656,1.3874 4.1552,-0.3588 8.8317,-0.9287 10.3923,-1.2665 l 2.8376,-0.6142 -0.6982,13.8833 c -0.435,8.6507 -1.1584,14.3718 -1.9194,15.1795 -2.2658,2.4048 -11.8947,4.216 -22.5575,4.2432 -16.1837,0.041 -26.814,-3.8569 -35.3216,-12.9522 -4.4168,-4.7218 -9.6456,-13.8452 -9.6686,-16.87 -0.01,-0.7055 -3.2801,1.9945 -7.277,6 -11.6624,11.6873 -26.5461,19.4125 -45.0345,23.3747 -8.7071,1.866 -26.9595,2.6093 -35.2263,1.4345 z m 36.69,-33.4354 c 15.6537,-3.0057 27.6643,-9.2297 36.5146,-18.9223 10.1624,-11.1296 13.2786,-21.6493 13.306,-44.9187 0.01,-8.1125 -0.095,-14.7471 -0.2326,-14.7436 -2.7432,0.07 -75.1454,15.6314 -79.75,17.1408 -14.3221,4.6949 -22.1066,9.9854 -26.5286,18.0293 -2.5575,4.6522 -2.9234,6.3323 -2.9018,13.3235 0.021,6.6625 0.4659,8.851 2.6634,13.09 4.2827,8.2617 11.9611,13.8876 23.0177,16.8649 6.8565,1.8463 24.6332,1.9176 33.9113,0.1361 z M 1976.14,1219.0326 v -150.5 h 22.9287 22.9286 l 62.9129,100.75 c 36.1021,57.8146 69.4793,112.4943 78.3213,128.3085 l 15.4085,27.5583 -0.3202,-128.3083 -0.3203,-128.3085 h 17.5703 17.5702 v 150.5185 150.5184 l -23.1654,-0.2685 -23.1653,-0.2684 -61.831,-99 c -34.007,-54.45 -69.09,-111.825 -77.9622,-127.5 -8.8722,-15.675 -16.1864,-28.5751 -16.2537,-28.6669 -0.067,-0.092 0.028,57.3957 0.212,127.75 l 0.3345,127.9169 h -17.5845 -17.5844 z m 986,36.474 v -114.0261 l 15.2165,0.2761 15.2165,0.276 2.2147,16 c 1.2181,8.8 2.2577,16.9 2.3102,18 0.061,1.2745 1.2612,-0.1765 3.3093,-4 1.8557,-3.4643 6.5988,-9.3913 11.2234,-14.0246 12.0343,-12.0571 24.4588,-17.808 44.3052,-20.5075 16.4259,-2.2342 39.217,0.569 39.1956,4.8209 -0.013,2.5129 -5.6549,31.2081 -6.2542,31.8073 -0.2808,0.2809 -4.2275,-0.2424 -8.7703,-1.1629 -11.97,-2.4254 -28.1405,-1.617 -37.1634,1.8579 -23.9487,9.2233 -39.2626,29.9418 -42.7625,57.8547 -0.6244,4.9795 -1.041,34.0246 -1.041,72.578 v 64.2762 h -18.5 -18.5 z" />
    <path
       id="path837"
       style="fill:#ff6900;fill-opacity:1"
       d="m 1162.64,1739.5112 c -16.2274,-0.9713 -24.5,-1.9997 -24.5,-3.0458 0,-0.4789 21.885,-50.7223 48.6333,-111.6518 26.7483,-60.9296 51.8732,-118.206 55.8331,-127.281 45.2157,-103.6225 47.7682,-109.1394 53.2201,-115.0281 3.551,-3.8355 7.282,-6.6081 11.5315,-8.5692 6.019,-2.7779 6.9926,-2.9135 23.2556,-3.2389 19.5195,-0.3905 26.4215,0.879 33.9745,6.249 9.9031,7.0408 2.2781,-9.2664 102.1193,218.3988 10.6879,24.3713 19.4326,44.7049 19.4326,45.1857 0,0.96 -19.8012,15.6576 -21.7968,16.1788 -0.7886,0.206 -21.6254,-46.0908 -57.2225,-127.1412 -30.7903,-70.1058 -56.595,-128.0778 -57.3439,-128.8267 -0.7489,-0.7489 -3.1597,-1.6028 -5.3574,-1.8975 -3.4204,-0.4588 -4.4318,-0.1239 -7.025,2.3267 -2.3497,2.2204 -15.3123,30.9051 -57.781,127.8626 -30.1135,68.75 -59.1094,134.9 -64.4354,147 -5.326,12.1 -13.8809,31.5625 -19.0109,43.25 l -9.3272,21.25 -6.1,-0.1516 c -3.3549,-0.083 -11.4999,-0.4748 -18.0999,-0.8698 z m -161.5,-38.8445 c -43.41642,-18.9941 -81.13197,-42.3099 -118.49998,-73.2567 -13.95682,-11.5586 -48.24931,-46.0084 -60.10171,-60.3774 -64.67265,-78.4047 -100.7766,-166.2717 -110.53028,-269 -1.5963,-16.8126 -1.58244,-63.18 0.0241,-80.5 10.84717,-116.9456 59.0238,-220.28384 140.56024,-301.49996 78.32546,-78.01775 174.90593,-124.27065 288.54763,-138.18698 20.8161,-2.5491 83.2416,-2.55199 103.7756,-0.005 35.1616,4.36172 66.3709,10.99582 95.276,20.25267 144.9387,46.41651 260.5618,159.85077 309.547,303.68697 15.4016,45.224 23.243,87.3875 25.3231,136.1633 5.3862,126.2971 -38.2901,247.3088 -123.9639,343.4608 -6.9524,7.8027 -9.4423,10.0136 -10.0515,8.925 -0.4454,-0.7959 -5.041,-11.0883 -10.2124,-22.872 -5.1715,-11.7838 -26.395,-60.125 -47.1635,-107.425 -20.7685,-47.3 -56.4023,-128.525 -79.1862,-180.5 -51.9664,-118.5465 -49.5094,-113.416 -58.6225,-122.4083 -8.4173,-8.3056 -14.5979,-11.8746 -25.3071,-14.6135 -26.1358,-6.6844 -53.3031,5.2082 -65.1548,28.5218 -1.1184,2.2 -36.7898,83.2 -79.2699,180 -42.4801,96.8 -84.848,193.325 -94.1509,214.5 -9.3029,21.175 -27.1284,61.7875 -39.6123,90.25 -15.7831,35.9848 -23.1592,51.7371 -24.2123,51.7076 -0.8329,-0.023 -8.4894,-3.094 -17.0144,-6.8235 z" />
  </g>
</svg>
